# xmcd
#
# Track frame offsets:
#	150
#	1456
#	45880
#	70673
#	123898
#	169106
#	236274
#
# Disc length: 3922 seconds
#
# Revision: 1
# Processed by: cddbd v1.5.2PL0 Copyright (c) Steve Scherf et al.
# Submitted via: audiograbber 1.83.01
#
DISCID=460f5007
DTITLE=Grateful Dead - 78-08-30 Red Rocks Amphitheatre, Morrison CO
DYEAR=1900
DGENRE=
TTITLE0=Crowd Noise
TTITLE1=I Need A Miracle
TTITLE2=Brown Eyed Women
TTITLE3=Estimated Prophet
TTITLE4=The Other One
TTITLE5=Eyes Of The World
TTITLE6=Drums
EXTD=
EXTT0=
EXTT1=
EXTT2=
EXTT3=
EXTT4=
EXTT5=
EXTT6=
PLAYORDER=
